<svg xmlns="http://www.w3.org/2000/svg" width="228" height="75" viewBox="0 0 228 75">
  <g fill="none">
    <path fill="#FFFFFF" d="M19.04976 69.23106C19.14246 69.23106 19.22472 69.2613 19.29636 69.32178L19.96686 69.93612C19.5957 70.32438 19.1394 70.62174 18.5976 70.8282 18.0558 71.03484 17.40528 71.13816 16.6464 71.13816 15.96744 71.13816 15.35706 71.04006 14.81526 70.8444 14.27346 70.64856 13.81068 70.37604 13.4271 70.02702 13.04334 69.67782 12.74922 69.2613 12.54474 68.77674 12.34026 68.29254 12.23802 67.76352 12.23802 67.19022 12.23802 66.60972 12.34764 66.07818 12.56688 65.59542 12.78612 65.11284 13.095 64.69722 13.49352 64.3482 13.89186 63.999 14.36724 63.72738 14.91966 63.53316 15.47208 63.33912 16.08354 63.2421 16.75386 63.2421 17.42004 63.2421 18.01152 63.33498 18.52794 63.51984 19.04436 63.70506 19.4841 63.94734 19.8468 64.2465L19.27746 64.9143C19.24362 64.95714 19.2006 64.99458 19.14786 65.02644 19.09512 65.05866 19.02222 65.0745 18.9297 65.0745 18.86634 65.0745 18.801 65.05938 18.7335 65.02914 18.666 64.9989 18.5922 64.96164 18.5121 64.917 18.432 64.87254 18.3393 64.8234 18.234 64.76994 18.12852 64.71666 18.00612 64.6677 17.86698 64.62306 17.72784 64.57878 17.56656 64.54116 17.38314 64.51092 17.19972 64.48068 16.98786 64.46556 16.74756 64.46556 16.3386 64.46556 15.96438 64.52712 15.6249 64.64988 15.28542 64.77282 14.99346 64.95084 14.74902 65.18412 14.5044 65.4174 14.31468 65.70234 14.17968 66.03876 14.04468 66.37536 13.97736 66.75912 13.97736 67.19022 13.97736 67.62474 14.05008 68.01102 14.19552 68.34942 14.34096 68.68782 14.53806 68.97258 14.787 69.20424 15.03558 69.43572 15.32862 69.61284 15.66594 69.73578 16.00326 69.85854 16.36596 69.9201 16.75386 69.9201 16.9857 69.9201 17.19558 69.9093 17.38314 69.88806 17.5707 69.86664 17.74368 69.8328 17.9019 69.78654 18.05994 69.74028 18.20952 69.6807 18.35082 69.60744 18.49212 69.53454 18.63234 69.44454 18.77148 69.3378 18.8136 69.30576 18.85788 69.27984 18.90432 69.26022 18.95058 69.24078 18.99918 69.23106 19.04976 69.23106M41.4585 67.19022C41.4585 66.76632 41.391 66.38616 41.25618 66.04956 41.12118 65.71296 40.9293 65.42712 40.68054 65.19222 40.43178 64.95714 40.1292 64.77732 39.77298 64.65258 39.41658 64.52802 39.015 64.46556 38.56806 64.46556 38.12112 64.46556 37.71954 64.52802 37.36314 64.65258 37.00692 64.77732 36.70326 64.95714 36.45252 65.19222 36.2016 65.42712 36.00864 65.71296 35.87382 66.04956 35.73882 66.38616 35.6715 66.76632 35.6715 67.19022 35.6715 67.61394 35.73882 67.99428 35.87382 68.3307 36.00864 68.6673 36.2016 68.95224 36.45252 69.18552 36.70326 69.4188 37.00692 69.59772 37.36314 69.72246 37.71954 69.8472 38.12112 69.9093 38.56806 69.9093 39.015 69.9093 39.41658 69.8472 39.77298 69.72246 40.1292 69.59772 40.43178 69.4188 40.68054 69.18552 40.9293 68.95224 41.12118 68.6673 41.25618 68.3307 41.391 67.99428 41.4585 67.61394 41.4585 67.19022zM43.19784 67.19022C43.19784 67.7565 43.08714 68.28084 42.86574 68.76342 42.64434 69.24618 42.33132 69.6636 41.92668 70.01622 41.52168 70.36884 41.03478 70.64388 40.46562 70.84152 39.89628 71.03934 39.26394 71.13816 38.56806 71.13816 37.87668 71.13816 37.24632 71.03934 36.67698 70.84152 36.10782 70.64388 35.61966 70.36884 35.21286 70.01622 34.80588 69.6636 34.4907 69.24618 34.26732 68.76342 34.04376 68.28084 33.93198 67.7565 33.93198 67.19022 33.93198 66.62376 34.04376 66.09942 34.26732 65.61702 34.4907 65.13426 34.80588 64.71666 35.21286 64.36404 35.61966 64.01142 36.10782 63.73638 36.67698 63.53874 37.24632 63.34092 37.87668 63.2421 38.56806 63.2421 39.03192 63.2421 39.46824 63.28746 39.87738 63.37854 40.28634 63.46926 40.66164 63.5976 41.0031 63.7632 41.34474 63.9288 41.65146 64.12986 41.92344 64.36674 42.19542 64.6038 42.42618 64.86804 42.61608 65.16 42.8058 65.45214 42.95016 65.76912 43.04916 66.11094 43.14834 66.45294 43.19784 66.81258 43.19784 67.19022zM65.94174 63.3276L65.94174 71.05266 65.06892 71.05266C64.93392 71.05266 64.82124 71.03376 64.73052 70.9965 64.6398 70.95906 64.55232 70.89606 64.46808 70.80696L59.69286 65.65698C59.71824 65.89188 59.73084 66.10914 59.73084 66.30858L59.73084 71.05266 58.2318 71.05266 58.2318 63.3276 59.1237 63.3276C59.19534 63.3276 59.25744 63.3303 59.31018 63.3357 59.36292 63.34092 59.40918 63.3519 59.44932 63.36756 59.48946 63.38376 59.52852 63.40698 59.5665 63.43722 59.6043 63.46746 59.64642 63.5076 59.69286 63.55746L64.48698 68.72868C64.47438 68.60412 64.46394 68.48118 64.45548 68.36022 64.44702 68.23908 64.4427 68.12694 64.4427 68.02362L64.4427 63.3276 65.94174 63.3276M86.38326 64.73268C86.33268 64.80738 86.27886 64.86174 86.22198 64.89558 86.1651 64.9296 86.09436 64.94652 86.01012 64.94652 85.92156 64.94652 85.82562 64.9188 85.7223 64.86354 85.61898 64.80828 85.49568 64.74708 85.3524 64.6794 85.20894 64.61172 85.04136 64.55034 84.84948 64.4949 84.6576 64.44 84.43098 64.4121 84.16962 64.4121 83.93346 64.4121 83.72682 64.43622 83.54988 64.48428 83.37276 64.53234 83.22408 64.59912 83.10384 64.68462 82.98378 64.76994 82.89414 64.87254 82.8351 64.99188 82.77588 65.11104 82.74654 65.24226 82.74654 65.38464 82.74654 65.5659 82.80666 65.71746 82.92672 65.83842 83.04696 65.95974 83.20608 66.06288 83.40426 66.14856 83.60244 66.23388 83.82816 66.31056 84.08106 66.37806 84.33414 66.44592 84.59334 66.51792 84.85902 66.59442 85.1247 66.6711 85.3839 66.7602 85.63698 66.86154 85.88988 66.96306 86.11542 67.0914 86.31378 67.2462 86.51178 67.40118 86.67108 67.59072 86.79132 67.81518 86.91138 68.03964 86.9715 68.31198 86.9715 68.63256 86.9715 68.98176 86.90076 69.30828 86.75964 69.61284 86.61834 69.9174 86.4117 70.18272 86.13972 70.40898 85.86792 70.63506 85.53582 70.81308 85.1436 70.94304 84.75156 71.07318 84.30246 71.13816 83.79648 71.13816 83.5056 71.13816 83.21868 71.11404 82.93626 71.06598 82.65384 71.01792 82.38294 70.94952 82.12356 70.86024 81.86418 70.77114 81.62064 70.66458 81.39312 70.53984 81.16542 70.4151 80.96292 70.27614 80.7858 70.12314L81.28548 69.43392C81.3276 69.38406 81.3825 69.3423 81.45 69.30828 81.51732 69.27462 81.58914 69.2577 81.6651 69.2577 81.7704 69.2577 81.88416 69.29424 82.00656 69.36714 82.12878 69.44022 82.27422 69.52122 82.44288 69.61014 82.61154 69.69924 82.80882 69.78024 83.03436 69.85332 83.2599 69.9264 83.5308 69.96276 83.84706 69.96276 84.3318 69.96276 84.70728 69.86592 84.97296 69.67152 85.23846 69.47748 85.3713 69.19884 85.3713 68.83542 85.3713 68.63256 85.31118 68.46714 85.19112 68.3388 85.07088 68.21046 84.91176 68.10282 84.71358 68.0157 84.5154 67.92822 84.28986 67.85442 84.03678 67.79376 83.78388 67.73328 83.52648 67.6674 83.26512 67.5963 83.00376 67.52484 82.74654 67.43952 82.49364 67.3398 82.24056 67.24008 82.01484 67.10994 81.81684 66.94974 81.61848 66.78936 81.45936 66.58902 81.3393 66.34872 81.21906 66.10842 81.15912 65.81178 81.15912 65.45934 81.15912 65.17782 81.22554 64.90368 81.3582 64.63638 81.49104 64.36944 81.684 64.13256 81.9369 63.92592 82.18998 63.71964 82.50192 63.55404 82.87308 63.42912 83.24406 63.30456 83.66994 63.2421 84.15072 63.2421 84.69036 63.2421 85.18788 63.31356 85.64328 63.45594 86.09868 63.59832 86.48658 63.79776 86.80698 64.05426L86.38326 64.73268M105.66738 69.89328C105.99624 69.89328 106.29036 69.8472 106.54974 69.7545 106.80912 69.6618 107.0271 69.53202 107.20422 69.36444 107.38134 69.19704 107.51742 68.994 107.61228 68.75532 107.70714 68.517 107.75448 68.24988 107.75448 67.95414L107.75448 63.3276 109.45602 63.3276 109.45602 67.95414C109.45602 68.41368 109.36836 68.8383 109.1934 69.22818 109.01844 69.61824 108.76752 69.95484 108.44082 70.2378 108.11394 70.52112 107.71668 70.74198 107.2485 70.90038 106.7805 71.05878 106.25346 71.13816 105.66738 71.13816 105.07698 71.13816 104.54796 71.05878 104.07978 70.90038 103.61178 70.74198 103.21434 70.52112 102.88764 70.2378 102.56076 69.95484 102.30984 69.61824 102.13506 69.22818 101.9601 68.8383 101.87262 68.41368 101.87262 67.95414L101.87262 63.3276 103.5738 63.3276 103.5738 67.94892C103.5738 68.24448 103.62132 68.5116 103.71618 68.7501 103.81104 68.98878 103.94802 69.19272 104.1273 69.36174 104.3064 69.53094 104.52564 69.6618 104.78502 69.7545 105.0444 69.8472 105.33852 69.89328 105.66738 69.89328"/>
    <polyline fill="#FFFFFF" points="130.27 69.867 130.27 71.053 124.914 71.053 124.914 63.328 126.615 63.328 126.615 69.867 130.27 69.867"/>
    <polyline fill="#FFFFFF" points="150.276 64.508 147.518 64.508 147.518 71.053 145.817 71.053 145.817 64.508 143.059 64.508 143.059 63.328 150.276 63.328 150.276 64.508"/>
    <polygon fill="#FFFFFF" points="165.012 71.053 166.72 71.053 166.72 63.328 165.012 63.328"/>
    <path fill="#FFFFFF" d="M190.008 63.3276L190.008 71.05266 189.135 71.05266C189 71.05266 188.8866 71.03376 188.7966 70.9965 188.7066 70.95906 188.6184 70.89606 188.5338 70.80696L183.7584 65.65698C183.7836 65.89188 183.7962 66.10914 183.7962 66.30858L183.7962 71.05266 182.2986 71.05266 182.2986 63.3276 183.1896 63.3276C183.2616 63.3276 183.3228 63.3303 183.3768 63.3357 183.429 63.34092 183.4758 63.3519 183.5154 63.36756 183.555 63.38376 183.5946 63.40698 183.6324 63.43722 183.6702 63.46746 183.7116 63.5076 183.7584 63.55746L188.5536 68.72868C188.541 68.60412 188.5302 68.48118 188.5212 68.36022 188.5122 68.23908 188.5086 68.12694 188.5086 68.02362L188.5086 63.3276 190.008 63.3276M213.1182 67.17942L213.1182 70.30476C212.6538 70.5933 212.1606 70.80426 211.635 70.93782 211.1094 71.07138 210.5478 71.13816 209.9502 71.13816 209.2032 71.13816 208.5282 71.04006 207.9234 70.8444 207.3168 70.64856 206.8002 70.37604 206.3736 70.02702 205.9452 69.67782 205.6158 69.2613 205.3836 68.77674 205.1514 68.29254 205.0344 67.76352 205.0344 67.19022 205.0344 66.60972 205.1478 66.0771 205.371 65.59272 205.5942 65.10852 205.911 64.69182 206.3232 64.34262 206.7336 63.99378 207.2322 63.72306 207.819 63.53082 208.404 63.3384 209.0628 63.2421 209.7918 63.2421 210.1626 63.2421 210.51 63.26712 210.8322 63.31698 211.1544 63.36702 211.4532 63.43542 211.7304 63.52272 212.0058 63.60984 212.2578 63.71586 212.4864 63.84042 212.7132 63.96534 212.922 64.1025 213.1128 64.2519L212.625 64.90368C212.5494 65.007 212.4504 65.07018 212.328 65.09322 212.2056 65.11644 212.0724 65.0907 211.9284 65.01582 211.7898 64.94832 211.6512 64.88046 211.5126 64.81296 211.3722 64.74528 211.2174 64.68642 211.0464 64.63638 210.8754 64.5867 210.6846 64.54566 210.4722 64.5138 210.258 64.48158 210.0132 64.46556 209.7342 64.46556 209.2842 64.46556 208.8756 64.52964 208.5102 64.6578 208.1466 64.78614 207.8352 64.96974 207.5778 65.20806 207.3204 65.44674 207.1224 65.73366 206.9838 66.06828 206.8434 66.40308 206.775 66.77712 206.775 67.19022 206.775 67.63176 206.8488 68.02614 206.9982 68.37354 207.1494 68.72076 207.36 69.01452 207.6318 69.255 207.9036 69.4953 208.2312 69.6789 208.6146 69.80508 208.998 69.93162 209.4264 69.99498 209.8998 69.99498 210.2364 69.99498 210.537 69.96474 210.8034 69.90408 211.0698 69.84342 211.329 69.76152 211.581 69.65838L211.581 68.25852 210.4308 68.25852C210.321 68.25852 210.2346 68.23296 210.1734 68.1813 210.1122 68.12964 210.0816 68.06628 210.0816 67.9914L210.0816 67.17942 213.1182 67.17942M2.50524.4374L8.04726.4374C8.61174.4374 9.3051.4374 10.12716.4374 10.9998.4374 11.97576.4374 13.05432.4374L17.36802.4374C18.34308.4374 18.83178.65016 18.83178 1.07532 18.83178 1.35882 18.29286 1.5138 17.29494 1.62018 16.95942 1.65618 15.44364 1.60326 15.8733 3.411 16.00236 3.95352 16.29468 4.50594 16.4637 4.97718 16.6419 5.47452 16.85556 6.06492 17.10468 6.74838 20.52522 16.14726 23.59314 24.05466 26.30808 30.46986L27.1269 32.13018C27.84132 30.40164 28.92222 27.61542 30.36924 23.77278 30.8313 22.49712 31.9122 19.61568 33.60924 15.12882 35.66232 9.56736 37.2393 5.76594 37.59264 3.92796 37.70856 3.32388 38.1879 1.80378 36.9279 1.80378 35.8479 1.80378 35.41986 1.3077 35.41986 1.06992 35.41986.64908 35.77842.4374 36.49824.4374L41.13198.4374C41.64462.4374 42.23556.4374 42.90354.4374 43.62228.4374 41.20434.4374 42.12864.4374L43.51518.4374C44.28558.4374 44.67078.69444 44.67078 1.20726 44.67078 1.62378 43.41672 1.80504 43.20414 1.85976 41.93892 2.18466 41.3433 3.267 41.0589 3.73338 40.64076 4.41864 40.20264 5.3721 39.74526 6.59322 39.3336 7.61994 38.71746 9.18216 37.89648 11.2806 35.1738 18.2259 30.78288 29.94408 24.72372 46.43244 23.90166 48.79548 23.31072 49.97592 22.95198 49.97592 22.48992 49.97592 22.10472 49.55076 21.79656 48.70008 21.12858 46.76328 20.28132 44.56638 19.25442 42.10938 17.7138 38.28222 15.6339 33.20406 13.0149 26.87238 11.88468 24.0849 10.13814 19.9512 7.77654 14.46984 6.62472 11.80026 5.47308 8.86536 4.32216 5.66352 4.18986 5.29524 3.0834 1.59588.97812 1.6425.3879 1.6425.02772 1.44378.02772 1.08378.02772.72378.3879.4374 1.28772.4374 2.18772.4374 2.50524.4374 2.50524.4374M139.51152 38.58678C138.99636 38.58678 138.6531 39.1995 138.50658 40.42944 138.2094 42.9246 136.4121 44.72982 134.57682 45.75168 132.6879 46.80378 130.16556 46.86048 130.16556 46.86048 128.781 46.90044 127.28358 46.9197 125.79138 46.93482 124.33122 46.9494 122.8761 46.9602 121.536 46.98252L119.85714 46.98252C118.62468 46.98252 117.51984 46.95912 116.54478 46.9116 116.33904 34.91118 116.2368 28.2663 116.2368 24.81696L116.2368 8.34156 116.23896 8.34156C116.23896 5.51124 116.2656 4.0311 116.31618 3.74778 116.36784 2.9934 116.92476 1.78848 118.04904 1.7145 118.86246 1.66104 119.26458 1.43316 119.26458 1.13004 119.26458.65826 118.55934.42228 117.14616.42228L103.85946.42228C102.44628.42228 101.74104.65826 101.74104 1.13004 101.74104 1.43316 102.14334 1.66104 102.95658 1.7145 104.08086 1.78848 104.63778 2.9934 104.68962 3.74778 104.72346 3.9375 104.7465 4.66776 104.75802 5.97816L104.6871 46.36818C104.56452 47.11896 104.01156 48.1428 102.97764 48.21066 102.1644 48.2643 101.7621 48.492 101.7621 48.7953 101.7621 49.26726 102.46734 49.50306 103.8807 49.50306 104.57136 49.50306 104.72526 49.51044 104.97366 49.51494 105.23304 49.51998 106.7733 49.49118 106.7733 49.49118 106.94934 49.4874 107.127 49.48434 107.30412 49.48074L109.15164 49.42674C115.74792 49.34826 131.77512 49.4046 131.77512 49.4046L135.40608 49.4046C136.53504 49.4046 139.4694 49.4046 139.56588 49.4046L140.07924 42.93108C140.1894 40.9446 140.28426 39.86244 140.28426 39.29544 140.28426 38.82258 140.02686 38.58678 139.51152 38.58678M165.50604 48.21102C164.38176 48.13704 163.82484 46.93212 163.77318 46.17792 163.7226 45.89442 163.69596 44.41464 163.69596 41.58396L163.6884 41.58396 163.6884 8.37342 163.69596 8.37342C163.69596 5.54292 163.7226 4.06296 163.77318 3.77946 163.82484 3.02526 164.38176 1.82034 165.50604 1.74636 166.31946 1.6929 166.72158 1.46502 166.72158 1.1619 166.72158.68994 166.01634.45396 164.60316.45396L151.13646.45396C149.72328.45396 149.01804.68994 149.01804 1.1619 149.01804 1.46502 149.42034 1.6929 150.23358 1.74636 151.35786 1.82034 151.91478 3.02526 151.96662 3.77946 152.01702 4.06296 152.04366 5.54292 152.04366 8.37342L152.05662 8.37342 152.05662 41.58396 152.04366 41.58396C152.04366 44.41464 152.01702 45.89442 151.96662 46.17792 151.91478 46.93212 151.35786 48.13704 150.23358 48.21102 149.42034 48.26448 149.01804 48.49236 149.01804 48.79548 149.01804 49.26744 149.72328 49.50342 151.13646 49.50342L164.60316 49.50342C166.01634 49.50342 166.72158 49.26744 166.72158 48.79548 166.72158 48.49236 166.31946 48.26448 165.50604 48.21102M219.4596 6.93882L218.9466.4653C218.8494.4653 215.9154.4653 214.7868.4653L211.1544.4653C211.1544.4653 209.5164.47124 207.0702.47646 207.0702.47646 201.3066.48006 197.3196.48402 193.3344.48006 187.569.47646 187.569.47646 185.1246.47124 183.4848.4653 183.4848.4653L179.85456.4653C178.72578.4653 175.79142.4653 175.69476.4653L175.18158 6.93882C175.07142 8.9253 174.97656 10.00764 174.97656 10.57446 174.97656 11.0475 175.23396 11.2833 175.7493 11.2833 176.26428 11.2833 176.60772 10.67076 176.75424 9.44064 177.05142 6.9453 178.84854 5.14044 180.684 4.11822 182.5722 3.06648 185.0958 3.00942 185.0958 3.00942 186.48 2.96982 187.9776 2.95056 189.4698 2.93544 190.0638 2.9295 190.6578 2.9241 191.2446 2.91816L191.2446 3.0384C191.277 3.0384 191.2968 8.37342 191.2968 8.37342L191.2968 41.58396 191.2842 41.58396C191.2842 44.41464 191.2572 45.89442 191.2068 46.17792 191.1546 46.93212 190.5984 48.13704 189.4734 48.21102 188.6598 48.26448 188.2584 48.49236 188.2584 48.79548 188.2584 49.26744 188.964 49.50342 190.377 49.50342L203.8428 49.50342C205.2558 49.50342 205.9614 49.26744 205.9614 48.79548 205.9614 48.49236 205.56 48.26448 204.7464 48.21102 203.6214 48.13704 203.0652 46.93212 203.013 46.17792 202.9626 45.89442 202.9356 44.41464 202.9356 41.58396L202.9284 41.58396 202.9284 8.37342C202.9284 8.37342 202.896 3.0384 202.932 3.0384L202.932 2.91366C203.6682 2.92122 204.4188 2.92788 205.1712 2.93544 206.6634 2.95056 208.161 2.96982 209.5452 3.00942 209.5452 3.00942 212.067 3.06648 213.957 4.11822 215.7912 5.14044 217.5894 6.9453 217.8864 9.44064 218.034 10.67076 218.376 11.2833 218.8908 11.2833 219.4074 11.2833 219.6648 11.0475 219.6648 10.57446 219.6648 10.00764 219.5694 8.9253 219.4596 6.93882M89.47152 38.58678C88.95636 38.58678 88.6131 39.1995 88.46658 40.42944 88.1694 42.9246 86.3721 44.72982 84.53682 45.75168 82.6479 46.80378 80.12556 46.86048 80.12556 46.86048 78.741 46.90044 77.24358 46.9197 75.75138 46.93482 74.29122 46.9494 72.8361 46.9602 71.496 46.98252L66.55158 46.98252 66.55158 24.24996 71.81604 24.24996C72.97542 24.24996 73.9854 24.3027 74.84616 24.40782 76.39938 24.59772 79.66044 24.80814 80.17668 28.16226 80.38368 29.48544 80.53776 30.25278 80.64126 30.46536 80.74494 30.67812 80.97696 30.7845 81.33822 30.7845 81.8028 30.7845 82.035 30.501 82.035 29.934 82.035 29.50866 82.00854 29.15424 81.95796 28.87092 81.85464 26.79228 81.80406 27.32184 81.80406 23.2578 81.80406 21.74634 81.82926 22.34142 81.8811 21.44322 82.035 18.79776 82.11222 17.04942 82.11222 16.1991 82.11222 15.3486 81.87984 14.92344 81.41526 14.92344 80.89884 14.92344 80.5113 15.79824 80.25372 17.5455 79.73748 20.80566 76.19382 21.07746 75.2679 21.24378 73.35198 21.58758 70.3782 21.67542 66.55158 21.64356L66.55158 2.71674C70.0542 2.5749 72.52758 2.50416 73.97082 2.50416 78.65766 2.50416 82.13526 2.6379 84.59514 4.01652 86.4279 5.04378 88.2279 6.84378 88.52508 9.33876 88.6716 10.56888 89.01486 11.18178 89.53002 11.18178 90.04536 11.18178 90.30276 10.94562 90.30276 10.47294 90.30276 9.90594 90.2079 8.82378 90.09774 6.8373L89.58438.36378C89.4879.36378 86.55354.36378 85.42458.36378L80.1864.36378C74.17764.26964 66.4479.17856 56.99934.36684 54.48258.41436 55.57824.4374 54.1665.4374 52.75332.4374 52.04808.67338 52.04808 1.14534 52.04808 1.44846 52.4502 1.67634 53.26344 1.7298 54.3879 1.80378 54.94482 3.0087 54.99648 3.7629 55.04706 4.0464 55.0737 5.60322 55.0737 8.43372L55.0737 41.47686C55.0737 44.30736 55.04706 45.86418 54.99648 46.14768 54.94482 46.90188 54.3879 48.1068 53.26344 48.18078 52.4502 48.23424 52.04808 48.46212 52.04808 48.76524 52.04808 49.23738 52.75332 49.47318 54.1665 49.47318 54.85716 49.47318 55.01124 49.48038 55.25946 49.48506 55.51884 49.48992 57.0591 49.4613 57.0591 49.4613 57.36348 49.455 57.66912 49.44888 57.97656 49.4433 63.61092 49.34088 81.73512 49.4046 81.73512 49.4046L85.36608 49.4046C86.49504 49.4046 89.4294 49.4046 89.52588 49.4046L90.03924 42.93108C90.1494 40.9446 90.24426 39.86244 90.24426 39.29544 90.24426 38.82258 89.98668 38.58678 89.47152 38.58678"/>
  </g>
</svg>
