<svg xmlns="http://www.w3.org/2000/svg" viewBox="0 0 539.57 380.91"><defs><style>.cls-1{fill:#fff;}</style></defs><title>logo</title><g id="Logo"><path class="cls-1" d="M592.6,504.43v11.28H544.1V455h48.57v11.28H558.5v13.2h22.68v10.93H558.5v14.07Z" transform="translate(-136.22 -136)"/><path class="cls-1" d="M136.22,455h14.49v49.3h31.42v11.46H136.22Z" transform="translate(-136.22 -136)"/><path class="cls-1" d="M251.3,504.43v11.28H202.8V455h48.57v11.28H217.2v13.2h22.68v10.93H217.2v14.07Z" transform="translate(-136.22 -136)"/><path class="cls-1" d="M288.35,466.4H268.3V455h54.59V466.4h-20v49.31h-14.5Z" transform="translate(-136.22 -136)"/><path class="cls-1" d="M469.05,455h25.38a41,41,0,0,1,18,3.77,28.87,28.87,0,0,1,12.17,10.64,31.55,31.55,0,0,1,0,31.94,28.85,28.85,0,0,1-12.17,10.63,41,41,0,0,1-18,3.78H469.05Zm24.66,49.21q9.39,0,15-5.07t5.59-13.76q0-8.68-5.59-13.76t-15-5.08H483.55v37.67Z" transform="translate(-136.22 -136)"/><path class="cls-1" d="M675.78,455.09,648.4,515.74l-14.31-.06L607.32,454.8l15.66.07,18.88,43.48L661.38,455Z" transform="translate(-136.22 -136)"/><rect class="cls-1" x="204.8" y="318.92" width="14.71" height="20.14"/><path class="cls-1" d="M415.06,457.76a49.92,49.92,0,0,0-11.36-3.21,37.43,37.43,0,0,0-14.76.2,19.71,19.71,0,0,0-9.86,5.33,16.55,16.55,0,0,0-4.43,9q-.94,6,1.7,10.11a19.08,19.08,0,0,0,6.9,6.46,102,102,0,0,0,11.06,5.1c2.95,1.18,5.29,2.19,7,3.05a13.48,13.48,0,0,1,4.06,3,4.51,4.51,0,0,1,1.16,3.84,5.35,5.35,0,0,1-3.66,4.2c-2.13.87-5.23,1-9.3.33a38.46,38.46,0,0,1-15.87-6.56l-4.86,10.82a43.66,43.66,0,0,0,5,2.68,52.9,52.9,0,0,0,13.88,4.19,37.64,37.64,0,0,0,14.8-.2,20,20,0,0,0,9.95-5.31,16.27,16.27,0,0,0,4.46-8.92c.64-4,.06-7.34-1.71-10a19.41,19.41,0,0,0-6.92-6.37,103.71,103.71,0,0,0-11-5.1,54.19,54.19,0,0,1-9.65-4.57c-2.05-1.35-2.91-3.06-2.59-5.11a5.79,5.79,0,0,1,3.67-4.52q3.16-1.42,9.18-.47A33.66,33.66,0,0,1,414,470.2l4.78-10.67Q417,458.59,415.06,457.76Z" transform="translate(-136.22 -136)"/><path class="cls-1" d="M337.44,335.92l-4.51-1.42,1-5.27c.11-.53.21-1.06.32-1.58l.31-1.49c.11-.56.22-1.12.34-1.68s.18-.84.28-1.25l.33-1.51c.15-.69.3-1.37.46-2.06.08-.38.18-.77.27-1.15l.29-1.19c.19-.81.38-1.61.58-2.41.09-.39.19-.78.29-1.16l.35-1.34.57-2.2c.13-.48.26-1,.4-1.44l.36-1.3.53-1.91.54-1.8.44-1.5.39-1.28c.29-1,.6-1.91.9-2.85l.29-.91c.08-.26.16-.52.25-.78.49-1.5,1-3,1.51-4.47l1.65-4.71.06,0c2-5.49,4.24-10.77,6.51-15.72,14.48-31.43,35.66-57,51.13-73.1-1.18-1.3-2.41-2.64-3.78-4.1l-.76-.8c-1.42-1.5-2.91-3-4.43-4.55l-.86-.85c-1.65-1.65-3.18-3.13-4.67-4.54l-.55-.51c-1.45-1.36-2.92-2.71-4.38-4l-.73.69-1.85,1.79L379.76,183c-.59.59-1.18,1.17-1.78,1.78l-1.07,1.08-.37.39c-.63.64-1.27,1.29-1.91,2l-1.14,1.2-.38.39-1.9,2-1.27,1.38-.3.33c-.64.69-1.27,1.39-1.91,2.1s-1.08,1.21-1.61,1.82-1.28,1.45-1.92,2.19l-1.63,1.9-1.92,2.29c-.54.65-1.09,1.31-1.63,2l-1.92,2.39-1.63,2.06c-.64.82-1.28,1.65-1.91,2.49s-1.08,1.41-1.61,2.13L350,217.51l-.19.27-1.38,1.9c-.58.83-1.16,1.66-1.73,2.5l-.58.84q-.56.79-1.11,1.62c-.6.88-1.18,1.78-1.77,2.68l-.56.86c-.34.52-.69,1-1,1.57-.57.88-1.12,1.78-1.67,2.69l-.74,1.19c-.28.46-.57.91-.85,1.38-.65,1.09-1.28,2.19-1.92,3.3l-.6,1-.63,1.08c-1.08,1.94-2.07,3.76-3,5.58-18.22,34.9-24.54,72.13-26.69,91.22l-.67,6.09,7.74,12.22c1.14.47,2.58,1,4.34,1.72,3.88,1.5,8,3,12.36,4.38,21.6,7.06,54.91,15.19,91,13.81,32.87-1.22,63-10.47,82.46-18L504,357l14.47-27.76c-18.45,7.38-52.37,18.71-89.35,20.07C392.78,350.66,359.21,342.77,337.44,335.92Z" transform="translate(-136.22 -136)"/><path class="cls-1" d="M379.68,167.44l3.31-3,4.3,3.35q1.8,1.56,3.57,3.15l.09.08c1.13,1,2.26,2.05,3.37,3.08l.27.24,3,2.8.61.58,2.11,2.07.72.7c.22.21.44.43.65.65.51.5,1,1,1.5,1.51l1.08,1.1.82.84q.8.82,1.56,1.65l1,1,.76.8c.89,1,1.76,1.93,2.64,2.89l.58.64c1.05,1.18,2.1,2.37,3.12,3.56.83,1,1.63,1.92,2.44,2.89l.15.18c3.92,4.71,7.58,9.45,10.86,14.08,20.06,28.29,31.65,59.46,37.89,81,1.72-.36,3.5-.77,5.46-1.23l1-.24c2-.48,4.07-1,6.17-1.56l1.14-.31c2.23-.6,4.27-1.19,6.25-1.78l.84-.25c2-.6,3.82-1.18,5.62-1.76-.23-.95-.46-1.88-.7-2.83l-.13-.51c-.32-1.23-.65-2.49-1-3.76l-.16-.61c-.35-1.28-.71-2.57-1.09-3.89l-.18-.63c-.38-1.32-.78-2.67-1.19-4l-.19-.62c-.43-1.39-.87-2.79-1.33-4.21l-.17-.54c-.48-1.46-1-2.94-1.48-4.43l-.13-.38c-.54-1.55-1.09-3.12-1.67-4.71s-1.21-3.27-1.83-4.88l-.12-.3q-.9-2.34-1.88-4.71l-.21-.54c-.64-1.54-1.29-3.08-2-4.63l-.29-.67q-1-2.29-2.06-4.59l-.35-.74q-1.06-2.29-2.19-4.59l-.37-.75c-.76-1.54-1.55-3.08-2.35-4.62l-.37-.69c-.83-1.57-1.67-3.13-2.54-4.7l-.32-.57c-.91-1.6-1.83-3.21-2.78-4.81l-.22-.35c-1.06-1.78-2.07-3.42-3.08-5-1.93-3-4-6.09-6.13-9.09-1.38-1.92-2.81-3.86-4.28-5.78s-2.88-3.72-4.38-5.56-2.95-3.57-4.45-5.33-3-3.41-4.51-5.08-3-3.26-4.51-4.85a296.68,296.68,0,0,0-32.78-29.43q-2.52-1.92-4.7-3.53L390.12,136H375.27l-1.93,1.51h0l-1.94,1.55c-3.23,2.62-6.59,5.5-10,8.53-16.89,15.2-40.55,40-57.36,71.93-15.57,29.6-22.6,60.77-25.75,81.86l16.82,26.54c.8-5.63,1.77-11.32,2.9-17q.56-2.74,1.18-5.62t1.35-5.88c.24-1,.49-2,.75-3q.76-3.06,1.63-6.21a249.23,249.23,0,0,1,19.42-50C339.3,208.05,362.88,182.89,379.68,167.44Z" transform="translate(-136.22 -136)"/><path class="cls-1" d="M533.09,295.51c-.65-4.12-1.46-8.46-2.4-12.9-4.68-22.23-14.3-55.14-33.51-85.68-17-27-39.24-48-55-60.93H409.25c3.29,2.61,6.56,5.32,9.75,8.08q2.06,1.78,4.19,3.7t4.35,4c3.07,2.86,6.1,5.81,9,8.77,1.53,1.55,3.08,3.16,4.6,4.78q1.16,1.23,2.31,2.49c1.59,1.72,3.14,3.46,4.62,5.16a228.3,228.3,0,0,1,37.56,58.56c.85,1.87,1.69,3.81,2.52,5.77,1.47,3.47,2.89,7.05,4.23,10.63.71,1.9,1.39,3.77,2,5.63a305.67,305.67,0,0,1,9.94,34.91l1,4.62-5.15,1.82c-3,1-6.13,2.06-9.23,3l-2.62.77-1.13.34-.91.27c-7.75,2.22-15.55,4.08-23.17,5.53-1.21.23-2.42.44-3.63.65l-.32,0c-6.15,1.07-12.19,1.87-17.95,2.41-34.42,3.17-67.11-2.38-88.79-7.72-.53,1.65-1.08,3.4-1.66,5.33l-.31,1c-.59,2-1.17,4-1.73,6.11l-.29,1.1c-.61,2.29-1.13,4.34-1.61,6.37l-.19.83c-.46,2-.9,3.9-1.29,5.76,20.22,5.92,50.85,12.54,83.67,11.15h.15c39.29-1.7,74.63-14.82,92.2-22.49l5.45-2.4,6.79-13.06-.19-1.78C533.37,297.39,533.24,296.5,533.09,295.51Z" transform="translate(-136.22 -136)"/></g></svg>